<svg width="512" height="395.16" version="1.1" viewBox="0 0 512 395.16" xmlns="http://www.w3.org/2000/svg">
 <path d="m494.34 0h-476.69c-9.75 0-17.655 7.904-17.655 17.655v70.621c0 9.75 7.905 17.655 17.655 17.655h476.69c9.75 0 17.655-7.905 17.655-17.655v-70.621c0-9.751-7.905-17.655-17.655-17.655z" fill="#7f8499"/>
 <path d="m459.03 61.793h-406.07c-4.875 0-8.828-3.953-8.828-8.828s3.953-8.828 8.828-8.828h406.07c4.875 0 8.828 3.953 8.828 8.828-1e-3 4.875-3.953 8.828-8.829 8.828z" fill="#464655"/>
 <path d="m79.448 44.138v329.99c0 3.342 1.888 6.399 4.877 7.894l22.508 11.263c13.034 4.8717 23.362-3.7822 35.3-9.753 4.971-2.486 10.824-2.486 15.795 0l19.505 9.756c4.971 2.486 10.824 2.486 15.795 0l19.503-9.754c4.972-2.487 10.825-2.486 15.797 1e-3l19.492 9.752c4.972 2.487 10.826 2.487 15.798 0l19.501-9.754c4.97-2.486 10.82-2.487 15.791-3e-3l19.54 9.766c4.968 2.483 10.814 2.484 15.781 2e-3l19.57-9.774c4.967-2.481 10.81-2.481 15.777 0l19.569 9.773c4.969 2.482 10.816 2.481 15.784-3e-3l22.539-11.27c2.99-1.495 4.879-4.552 4.879-7.895v-330z" fill="#f1f4fb"/>
 <path d="m247.17 150.07h-105.93c-4.879 0-8.828-3.953-8.828-8.828s3.948-8.828 8.828-8.828h105.93c4.879 0 8.828 3.953 8.828 8.828s-3.948 8.828-8.828 8.828z" fill="#c7cfe2"/>
 <path d="m317.79 105.93h-176.55c-4.879 0-8.828-3.953-8.828-8.828s3.948-8.828 8.828-8.828h176.55c4.879 0 8.828 3.953 8.828 8.828s-3.948 8.828-8.828 8.828z" fill="#c7cfe2"/>
 <g transform="translate(0 -58.42)" fill="#afb9d2">
  <path d="m300.14 208.49h-17.655c-4.879 0-8.828-3.953-8.828-8.828s3.948-8.828 8.828-8.828h17.655c4.879 0 8.828 3.953 8.828 8.828s-3.949 8.828-8.828 8.828z"/>
  <path d="m300.14 252.63h-17.655c-4.879 0-8.828-3.953-8.828-8.828s3.948-8.828 8.828-8.828h17.655c4.879 0 8.828 3.953 8.828 8.828s-3.949 8.828-8.828 8.828z"/>
 </g>
 <path d="m247.17 194.21h-105.93c-4.879 0-8.828-3.953-8.828-8.828s3.948-8.828 8.828-8.828h105.93c4.879 0 8.828 3.953 8.828 8.828s-3.948 8.828-8.828 8.828z" fill="#c7cfe2"/>
 <g fill="#afb9d2">
  <path d="m158.9 238.34h-17.655c-4.879 0-8.828-3.953-8.828-8.828s3.948-8.828 8.828-8.828h17.655c4.879 0 8.828 3.953 8.828 8.828-1e-3 4.875-3.949 8.828-8.828 8.828z"/>
  <path d="m211.86 238.34h-17.655c-4.879 0-8.828-3.953-8.828-8.828s3.948-8.828 8.828-8.828h17.655c4.879 0 8.828 3.953 8.828 8.828s-3.948 8.828-8.828 8.828z"/>
  <path d="m264.83 238.34h-17.655c-4.879 0-8.828-3.953-8.828-8.828s3.948-8.828 8.828-8.828h17.655c4.879 0 8.828 3.953 8.828 8.828-1e-3 4.875-3.949 8.828-8.828 8.828z"/>
 </g>
 <g transform="translate(0 -58.42)" fill="#c7cfe2">
  <path d="m335.45 340.9h-158.9c-4.879 0-8.828-3.953-8.828-8.828s3.948-8.828 8.828-8.828h158.9c4.879 0 8.828 3.953 8.828 8.828s-3.949 8.828-8.829 8.828z"/>
  <path d="m300.14 385.04h-88.276c-4.879 0-8.828-3.953-8.828-8.828s3.948-8.828 8.828-8.828h88.276c4.879 0 8.828 3.953 8.828 8.828s-3.949 8.828-8.828 8.828z"/>
 </g>
 <rect x="79.448" y="44.134" width="353.1" height="17.655" fill="#d5dced"/>
 <text transform="scale(1.0296 .97123)" x="288.25888" y="242.88309" fill="#afb9d2" font-family="sans-serif" font-size="196.39px" stroke-width="4.9098" style="line-height:1.25" xml:space="preserve"><tspan x="288.25888" y="242.88309" fill="#afb9d2" stroke-width="4.9098">$</tspan></text>
</svg>
