<?xml version="1.0" encoding="UTF-8"?>
<svg width="384.77" height="150.95" version="1.1" viewBox="0 0 384.77 150.95" xmlns="http://www.w3.org/2000/svg">
 <g transform="matrix(.59506 0 0 .59506 248.05 5.4994)">
  <svg width="244.43" height="244.43" version="1.1" viewBox="0 0 244.43136 244.43136">
   <g data-palette-color="#87c0cd">
    <g transform="matrix(1.6805 0 0 1.6805 -420.24 0)">
     <g transform="matrix(.59506 0 0 .59506 0 15.625)">
      <svg width="395.52" height="191.91" version="1.1" viewBox="0 0 395.52 191.91485">
       <svg width="395.52" height="191.91" version="1.1" viewBox="0 0 395.52 191.91485">
        <svg width="395.52" height="104.72" version="1.1" viewBox="0 0 395.52 104.7178">
         <svg width="395.52" height="104.72" data-palette-color="#113f67" version="1.1" viewBox="3.4000001 -35.5 136.34001 36.099998">
          <path class="undefined-text-0" d="m22.15 0v-14.55h-11.6v14.55h-7.15v-34.9h7.15v14.15h11.6v-14.15h7.15v34.9zm26.6 0.6q-3.15 0-5.7-0.98-2.55-0.97-4.35-3.15-1.8-2.17-2.8-5.6-1-3.42-1-8.32t1-8.33q1-3.42 2.8-5.6 1.8-2.17 4.35-3.14 2.55-0.98 5.7-0.98t5.7 0.98q2.55 0.97 4.35 3.14 1.8 2.18 2.8 5.6 1 3.43 1 8.33t-1 8.32q-1 3.43-2.8 5.6-1.8 2.18-4.35 3.15-2.55 0.98-5.7 0.98zm0-6.3q3 0 4.62-1.8 1.63-1.8 1.63-5.4v-9.1q0-3.6-1.63-5.4-1.62-1.8-4.62-1.8t-4.63 1.8q-1.62 1.8-1.62 5.4v9.1q0 3.6 1.62 5.4 1.63 1.8 4.63 1.8zm39.9-22.95h-8.35v28.65h-7.15v-28.65h-8.35v-6.25h23.85zm26.24 28.65h-21.6v-34.9h21.6v6.25h-14.45v7.9h12.25v6.2h-12.25v8.3h14.45zm24.85 0h-19v-34.9h7.15v28.65h11.85z" fill="#fff" data-fill-palette-color="primary"/>
         </svg>
        </svg>
        <g transform="translate(163.31 129.44)">
         <svg width="232.21" height="62.476" version="1.1" viewBox="0 0 232.20979 62.475693">
          <svg width="232.21" height="62.476" data-palette-color="#87c0cd" version="1.1" viewBox="2.4000001 -36.400002 137.14 36.900002">
           <path class="undefined-text-1" d="m26.65-2.4 1.6 1q-0.5 0.85-1.37 1.3-0.88 0.45-1.83 0.45-1.8 0-2.85-1.03-1.05-1.02-1.2-3.02-1.05 1.9-3.2 3.02-2.15 1.13-4.85 1.13-3.45 0-5.82-1.73-2.38-1.72-3.55-4.6-1.18-2.87-1.18-6.37 0-3.9 1.45-6.82 1.45-2.93 4.18-4.56 2.72-1.62 6.47-1.62 1.15 0 2.93 0.12 1.77 0.13 3.12 0.33h2.5v20.9q0 1.2 0.55 1.77 0.55 0.58 1.45 0.58 0.45 0 0.93-0.25 0.47-0.25 0.67-0.6zm-5.7-6.9v-13.7q-0.8 0.05-3.6-0.15l-3.05-0.1q-4.75 0-7.27 3.1-2.53 3.1-2.53 7.8 0 2.8 0.98 5.27 0.97 2.48 2.9 4 1.92 1.53 4.62 1.53 2.45 0 4.35-1.2t2.85-3.1q0.75-1.5 0.75-3.45zm20.1 9.75q-3.4 0-5.78-1.73-2.37-1.72-3.6-4.62-1.22-2.9-1.22-6.45 0-3.85 1.45-6.75t4.17-4.53q2.73-1.62 6.48-1.62 1.7 0 3.57 0.2 1.88 0.2 2.88 0.4v-11.75h2.1v32.5q0 1.2 0.55 1.77 0.55 0.58 1.45 0.58 0.45 0 0.92-0.25 0.48-0.25 0.68-0.6l1.6 1q-0.5 0.85-1.38 1.3-0.87 0.45-1.82 0.45-1.85 0-2.9-1.08-1.05-1.07-1.15-3.07-0.95 1.75-3.18 3-2.22 1.25-4.82 1.25zm0-1.9q2.35 0 4.27-1.18 1.93-1.17 2.93-3.22 0.75-1.6 0.75-3.45v-13.4q-2.15-0.65-5.4-0.65-5.7 0-8.38 3.05-2.67 3.05-2.67 7.95 0 4.65 2.22 7.77 2.23 3.13 6.28 3.13zm56.2-0.75 1.55 1.1q-1.15 1.6-3.11 1.6-1.79 0-2.92-1.18-1.12-1.17-1.12-3.17v-13.7q-0.31-5.75-5.46-5.75-5.1 0-7.8 5.3v17.95h-2.09v-16.8q0-3-1.38-4.73-1.37-1.72-4.03-1.72-2.55 0-4.75 1.52-2.19 1.53-3.05 3.73v18h-2.1v-17.95q0-2.2-0.44-3.48-0.46-1.27-1.41-2.47l1.41-1.35q1.04 1 1.72 2.32 0.68 1.33 0.78 2.73 2.54-5 8.09-5 5.41 0 6.95 5.25 2.85-5.25 8.16-5.25 3.5 0 5.5 2.05t2 5.6v13.8q0 1.2 0.55 1.8 0.54 0.6 1.45 0.6 0.84 0 1.5-0.8zm8.44-1.6q0 1.2 0.55 1.8t1.45 0.6q0.85 0 1.5-0.8l1.55 1.1q-1.15 1.6-3.1 1.6-1.8 0-2.92-1.18-1.13-1.17-1.13-3.17v-21.15h2.1zm-1.05-24.95q-0.8 0-1.3-0.5t-0.5-1.3 0.5-1.3 1.3-0.5 1.33 0.5q0.52 0.5 0.52 1.3t-0.52 1.3q-0.53 0.5-1.33 0.5zm33.35 26.55 1.55 1.1q-1.15 1.6-3.1 1.6-1.8 0-2.92-1.18-1.13-1.17-1.13-3.17v-13q0-6.5-6-6.5-2.5 0-4.57 1.27-2.08 1.28-4.23 4.18v17.9h-2.1v-18q0-2.2-0.45-3.48-0.45-1.27-1.4-2.47l1.4-1.35q1.1 1.05 1.78 2.42 0.67 1.38 0.77 2.83 1.7-2.75 3.88-3.98 2.17-1.22 5.17-1.22 3.75 0 5.8 1.9t2.05 5.45v14.1q0 1.2 0.55 1.8t1.45 0.6q0.85 0 1.5-0.8z" fill="#fff" data-fill-palette-color="secondary"/>
          </svg>
         </svg>
        </g>
       </svg>
      </svg>
     </g>
    </g>
    <g fill="#fff">
     <path d="m0 0h66.811v244.43h-66.811z"/>
     <path d="m81.477 0h66.811v244.43h-66.811z" fill-opacity=".75"/>
     <path d="m162.95 0h66.811v244.43h-66.811z" fill-opacity=".5"/>
    </g>
   </g>
  </svg>
 </g>
 <rect x="-112.3" y="237.65" width="998.35" height="367.14" fill="none" stroke-width="2.5241" visibility="hidden"/>
</svg>
