<svg id="Layer_1" data-name="Layer 1" xmlns="http://www.w3.org/2000/svg" viewBox="0 0 96 96"><defs><style>.cls-1{fill:#8a6762;}.cls-2{fill:#98726b;}.cls-3{fill:#cba07a;}.cls-4{fill:#d9b18c;}.cls-5{fill:#e5c2a1;}.cls-6{fill:#8288a1;}.cls-7{fill:#39426a;}</style></defs><title>door, entrance, exit, real estate, property, house, home</title><rect class="cls-1" x="16.66" y="2.48" width="62.68" height="92.06"/><rect class="cls-2" x="19.6" y="5.42" width="56.81" height="89.13"/><rect class="cls-3" x="22.54" y="8.36" width="50.93" height="86.19"/><rect class="cls-4" x="25.48" y="11.3" width="45.05" height="83.25"/><path class="cls-5" d="M66.61,53.41V81.82a5.87,5.87,0,0,0-5.87,5.87H50V53.41Z"/><path class="cls-5" d="M29.4,53.41V81.82a5.87,5.87,0,0,1,5.87,5.87H46.05V53.41Z"/><path class="cls-4" d="M53.88,83.77V57.33H62.7V78.72a9.82,9.82,0,0,0-5.06,5Z"/><path class="cls-5" d="M66.61,21.09v28.4H50V15.22H60.74A5.87,5.87,0,0,0,66.61,21.09Z"/><path class="cls-4" d="M53.88,45.58V19.13h3.76a9.84,9.84,0,0,0,5.06,5.06V45.58Z"/><path class="cls-4" d="M42.13,83.77V57.33H33.31V78.72a9.82,9.82,0,0,1,5.06,5Z"/><path class="cls-5" d="M29.4,21.09v28.4H46.05V15.22H35.27A5.87,5.87,0,0,1,29.4,21.09Z"/><path class="cls-4" d="M42.13,45.58V19.13H38.37a9.84,9.84,0,0,1-5.06,5.06V45.58Z"/><path class="cls-6" d="M30.38,41.66a3.92,3.92,0,1,0,3.91,3.92h5.88a2,2,0,0,0,2-2h0a2,2,0,0,0-2-2Z"/><path class="cls-7" d="M46.05,52.43H29.4a1,1,0,0,0-1,1V81.82a1,1,0,0,0,1,1,4.9,4.9,0,0,1,4.89,4.9,1,1,0,0,0,1,1H46.05a1,1,0,0,0,1-1V53.41A1,1,0,0,0,46.05,52.43Zm-1,34.28H36.18a6.86,6.86,0,0,0-5.8-5.8V54.39H45.07Z"/><path class="cls-7" d="M66.61,52.43H50a1,1,0,0,0-1,1V87.69a1,1,0,0,0,1,1H60.74a1,1,0,0,0,1-1,4.9,4.9,0,0,1,4.89-4.9,1,1,0,0,0,1-1V53.41A1,1,0,0,0,66.61,52.43Zm-1,28.48a6.86,6.86,0,0,0-5.81,5.8H50.94V54.39h14.7Z"/><path class="cls-7" d="M46.05,14.24H35.27a1,1,0,0,0-1,1,4.89,4.89,0,0,1-4.89,4.89,1,1,0,0,0-1,1v20a4.89,4.89,0,0,0,.28,9.09,1,1,0,0,0,.7.29H46.05a1,1,0,0,0,1-1V15.22A1,1,0,0,0,46.05,14.24Zm-18.53,32a2.95,2.95,0,0,1,2.86-3.64h9.79a1,1,0,0,1,0,2H34.29a1,1,0,0,0-1,1,2.93,2.93,0,0,1-2.94,2.94h0a3.72,3.72,0,0,1-.66-.08l-.08,0A2.91,2.91,0,0,1,27.52,46.28Zm17.55,2.24H34.27a5,5,0,0,0,.91-2h5a2.94,2.94,0,0,0,0-5.88H30.38V22a6.87,6.87,0,0,0,5.8-5.81h8.89Z"/><path class="cls-7" d="M66.61,20.11a4.89,4.89,0,0,1-4.89-4.89,1,1,0,0,0-1-1H50a1,1,0,0,0-1,1V49.49a1,1,0,0,0,1,1H66.61a1,1,0,0,0,1-1V21.09A1,1,0,0,0,66.61,20.11Zm-1,28.41H50.94V16.19h8.89A6.87,6.87,0,0,0,65.64,22Z"/><path class="cls-7" d="M87.18,93.57H80.33V2.48a1,1,0,0,0-1-1H16.66a1,1,0,0,0-1,1V93.57H8.83a1,1,0,1,0,0,2H87.18a1,1,0,1,0,0-2Zm-63.66,0V9.34h49V93.57Zm50.93,0V8.36a1,1,0,0,0-1-1H22.54a1,1,0,0,0-1,1V93.57H17.64V3.46H78.37V93.57Z"/></svg>