<?xml version="1.0" encoding="utf-8"?>
<!-- Generator: Adobe Illustrator 24.1.1, SVG Export Plug-In . SVG Version: 6.00 Build 0)  -->
<svg version="1.1" id="Layer_1" xmlns="http://www.w3.org/2000/svg" xmlns:xlink="http://www.w3.org/1999/xlink" x="0px" y="0px"
	 viewBox="0 0 512 512" style="enable-background:new 0 0 512 512;" xml:space="preserve">
<style type="text/css">
	.st0{fill:#95A5A6;}
	.st1{fill:#F1C40F;}
	.st2{fill:#ECF0F1;}
	.st3{fill:#F39C12;}
	.st4{fill:#BDC3C7;}
	.st5{fill:#C0392B;}
	.st6{fill:#E74C3C;}
	.st7{fill:#3498DB;}
	.st8{fill:#2980B9;}
	.st9{fill:#7F8C8D;}
</style>
<g id="XMLID_1_">
	<polyline id="XMLID_3_" class="st0" points="0,469.1 511.2,469.1 426.3,340.9 84.9,340.9 0,469.1 	"/>
	<rect id="XMLID_4_" x="42.5" y="85.3" class="st1" width="426.3" height="361.8"/>
	<rect id="XMLID_5_" x="84.9" y="234.8" class="st2" width="191.9" height="191.9"/>
	<rect id="XMLID_6_" x="298.1" y="256" class="st2" width="128.2" height="191.9"/>
	<rect id="XMLID_7_" x="42.5" y="192.3" class="st3" width="426.3" height="84.9"/>
	<rect id="XMLID_8_" x="298.1" y="234.8" class="st4" width="128.2" height="21.2"/>
	<rect id="XMLID_9_" x="84.9" y="234.8" class="st4" width="191.9" height="42.5"/>
	<path id="XMLID_10_" class="st5" d="M0,171.1v32.2c0,17.3,14.2,32.2,32.2,32.2c17.3,0,32.2-14.9,32.2-32.2v-32.2H32.2H0z"/>
	<path id="XMLID_11_" class="st4" d="M63.7,171.1v32.2c0,17.3,14.2,32.2,32.2,32.2s32.2-14.9,32.2-32.2v-32.2H96H63.7z"/>
	<path id="XMLID_12_" class="st5" d="M128.2,171.1v32.2c0,17.3,14.2,32.2,32.2,32.2s32.2-14.9,32.2-32.2v-32.2h-32.2H128.2z"/>
	<path id="XMLID_13_" class="st4" d="M191.9,171.1v32.2c0,17.3,14.2,32.2,32.2,32.2c17.3,0,32.2-14.9,32.2-32.2v-32.2h-32.2H191.9z"
		/>
	<path id="XMLID_14_" class="st5" d="M255.6,171.1v32.2c0,17.3,14.2,32.2,32.2,32.2c18.1,0,32.2-14.9,32.2-32.2v-32.2h-32.2H255.6z"
		/>
	<path id="XMLID_15_" class="st4" d="M319.3,171.1v32.2c0,17.3,14.2,32.2,32.2,32.2s32.2-14.9,32.2-32.2v-32.2h-32.2H319.3z"/>
	<path id="XMLID_16_" class="st5" d="M383.8,171.1v32.2c0,17.3,14.2,32.2,32.2,32.2c18.1,0,32.2-14.9,32.2-32.2v-32.2H416H383.8z"/>
	<path id="XMLID_17_" class="st4" d="M447.5,171.1v32.2c0,17.3,14.2,32.2,32.2,32.2s32.2-14.9,32.2-32.2v-32.2h-32.2H447.5z"/>
	<polygon id="XMLID_18_" class="st2" points="213.1,85.3 255.6,85.3 255.6,171.1 191.9,171.1 	"/>
	<polygon id="XMLID_19_" class="st6" points="255.6,85.3 298.1,85.3 319.3,171.1 255.6,171.1 	"/>
	<polygon id="XMLID_20_" class="st2" points="106.2,85.3 170.7,85.3 128.2,171.1 63.7,171.1 	"/>
	<polygon id="XMLID_21_" class="st6" points="170.7,85.3 213.1,85.3 191.9,171.1 128.2,171.1 	"/>
	<polygon id="XMLID_22_" class="st2" points="340.5,85.3 298.1,85.3 319.3,171.1 383.8,171.1 	"/>
	<polygon id="XMLID_23_" class="st6" points="405,85.3 340.5,85.3 383.8,171.1 447.5,171.1 	"/>
	<polygon id="XMLID_24_" class="st6" points="42.5,85.3 106.2,85.3 63.7,171.1 0,171.1 	"/>
	<polygon id="XMLID_25_" class="st2" points="468.7,85.3 405,85.3 447.5,171.1 511.2,171.1 	"/>
	<rect id="XMLID_26_" x="319.3" y="277.2" class="st7" width="84.9" height="170.7"/>
	<rect id="XMLID_27_" x="298.1" y="340.9" class="st2" width="106.2" height="21.2"/>
	<rect id="XMLID_28_" x="405" y="256" class="st4" width="21.2" height="21.2"/>
	<rect id="XMLID_29_" x="319.3" y="256" class="st8" width="84.9" height="21.2"/>
	<rect id="XMLID_30_" x="298.1" y="256" class="st4" width="21.2" height="21.2"/>
	<rect id="XMLID_31_" x="106.2" y="256" class="st7" width="149.4" height="149.4"/>
	<rect id="XMLID_32_" x="84.9" y="319.7" class="st2" width="191.9" height="21.2"/>
	<rect id="XMLID_33_" x="170.7" y="256" class="st2" width="21.2" height="149.4"/>
	<polyline id="XMLID_34_" class="st2" points="21.2,85.3 490,85.3 412.1,42.9 99.1,42.9 21.2,85.3 	"/>
	<rect id="XMLID_35_" x="170.7" y="256" class="st4" width="21.2" height="21.2"/>
	<polyline id="XMLID_36_" class="st4" points="21.2,64.1 490,64.1 412.1,21.6 99.1,21.6 21.2,64.1 	"/>
	<rect id="XMLID_37_" x="21.2" y="64.1" class="st9" width="468.7" height="21.2"/>
	<rect id="XMLID_38_" x="319.3" y="384.2" class="st8" width="84.9" height="63.7"/>
	<rect id="XMLID_39_" y="469.1" class="st9" width="511.2" height="21.2"/>
	<path id="XMLID_42_" class="st8" d="M106.2,256v21.2h63.7V256H106.2z M191.9,256v21.2h63.7V256H191.9z"/>
	<path id="XMLID_45_" class="st8" d="M106.2,384.2v21.2h63.7v-21.2H106.2z M191.9,384.2v21.2h63.7v-21.2H191.9z"/>
	<path id="XMLID_50_" class="st5" d="M42.5,85.3l-10.2,21.2H96l11-21.2H42.5z M149.4,85.3l-5.5,21.2h63.7l5.5-21.2H149.4z
		 M255.6,85.3v21.2h48l-5.5-21.2H255.6z M340.5,85.3l11,21.2h63.7L405,85.3H340.5z"/>
	<path id="XMLID_55_" class="st4" d="M106.2,85.3L96,106.6h63.7l11-21.2H106.2z M213.1,85.3l-5.5,21.2h48V85.3H213.1z M298.1,85.3
		l5.5,21.2h48l-11-21.2H298.1z M405,85.3l11,21.2h63.7l-11-21.2H405z"/>
</g>
</svg>
